<?xml version="1.0" encoding="UTF-8"?>
<svg version="1.1" xmlns="http://www.w3.org/2000/svg" width="234" height="254">
<path d="M0 0 C77.22 0 154.44 0 234 0 C234 83.82 234 167.64 234 254 C156.78 254 79.56 254 0 254 C0 170.18 0 86.36 0 0 Z " fill="#FEFEFE" transform="translate(0,0)"/>
<path d="M0 0 C3.99440969 0.52273802 5.99654013 1.48389506 8.8828125 4.2734375 C9.92115234 5.2634375 9.92115234 5.2634375 10.98046875 6.2734375 C12.04201172 7.31371094 12.04201172 7.31371094 13.125 8.375 C13.84042969 9.06078125 14.55585938 9.7465625 15.29296875 10.453125 C17.206278 12.29133239 19.10845834 14.13942346 21 16 C21.5760498 16.52287598 22.15209961 17.04575195 22.74560547 17.58447266 C23.15955566 18.05159668 23.57350586 18.5187207 24 19 C23.6875 21.1875 23.6875 21.1875 23 23 C18.16743695 22.58578031 16.17320782 20.53586014 13 17 C9.89891128 18.36805266 7.90336681 19.89529815 5.609375 22.37890625 C4.98554932 23.04921875 4.36172363 23.71953125 3.71899414 24.41015625 C3.06922607 25.12042969 2.41945801 25.83070312 1.75 26.5625 C1.08411865 27.28179687 0.4182373 28.00109375 -0.26782227 28.7421875 C-4.91009782 33.7700454 -9.50977969 38.83552935 -14 44 C-10.60009686 48.15933167 -7.25765774 51.68848842 -3 55 C-1 58 -1 58 -1.1875 60.5 C-2.04440174 63.13662075 -2.88992853 64.25689748 -5 66 C-2.07973965 72.90243355 3.09815085 77.12096283 9.125 81.1875 C16.38078059 86.15793597 19.35215401 88.97544482 21.75 97.375 C21.98332031 98.13039063 22.21664062 98.88578125 22.45703125 99.6640625 C23.65025427 103.75102996 24.4484972 106.83154696 23 111 C21.31439288 112.68560712 19.23115633 112.12475509 16.98120832 112.13374341 C15.89518977 112.13039732 15.89518977 112.13039732 14.78723145 112.12698364 C14.02345829 112.12854363 13.25968514 112.13010362 12.47276735 112.13171089 C9.89393509 112.13572384 7.31516091 112.13253011 4.73632812 112.12939453 C2.89546168 112.13074844 1.05459551 112.13252832 -0.78627014 112.13470459 C-5.80058768 112.13928014 -10.81488474 112.13748886 -15.82920265 112.1343255 C-21.06448041 112.13180253 -26.29975636 112.13413927 -31.53503418 112.13571167 C-40.32853512 112.13753355 -49.12202768 112.13512658 -57.91552734 112.13037109 C-68.09760253 112.12492844 -78.27965769 112.12669108 -88.46173239 112.1321975 C-97.18696308 112.13672811 -105.91218773 112.13737944 -114.63741922 112.13475883 C-119.85601537 112.13319577 -125.07460209 112.13300309 -130.29319763 112.13629532 C-135.19817993 112.13917328 -140.10313629 112.13719974 -145.00811577 112.13140106 C-146.81376032 112.13007306 -148.61940703 112.13046826 -150.42505074 112.13266373 C-152.87914096 112.13537366 -155.33314669 112.13199606 -157.78723145 112.12698364 C-158.51124382 112.12921436 -159.23525619 112.13144509 -159.98120832 112.13374341 C-164.88585014 112.11414986 -164.88585014 112.11414986 -166 111 C-166.19219835 105.45451231 -166.10856771 99.92011847 -166.01513672 94.37304688 C-166.00247984 92.38877439 -166.07142759 90.4042031 -166.16015625 88.421875 C-166.20383505 83.65464588 -165.85895437 81.03915459 -162.765625 77.296875 C-159.9487492 74.69787909 -157.02821557 72.3471711 -154 70 C-152.57606234 68.67443455 -151.15843512 67.34202561 -149.75 66 C-145.88537051 62.62043718 -142.23332938 61 -137 61 C-137 60.01 -137 59.02 -137 58 C-136.01 58 -135.02 58 -134 58 C-134 58.66 -134 59.32 -134 60 C-131.59645407 60.19238129 -131.59645407 60.19238129 -129 59 C-127.3172829 56.25755951 -126.35007556 53.28473125 -125.3125 50.25 C-125.01794922 49.43789062 -124.72339844 48.62578125 -124.41992188 47.7890625 C-123.26777023 44.60964178 -122.13262985 41.45373368 -121.18359375 38.20703125 C-119.4529036 34.97983675 -116.75514508 33.36361648 -113.75 31.4375 C-113.18925781 31.06431641 -112.62851563 30.69113281 -112.05078125 30.30664062 C-110.92317962 29.55794439 -109.78830795 28.82008385 -108.64648438 28.09326172 C-107.08389785 27.05570797 -105.60782765 25.89120699 -104.140625 24.72265625 C-99.88427547 22.38801677 -96.74513956 22.65528749 -92 23 C-91.11393066 23.04044434 -90.22786133 23.08088867 -89.31494141 23.12255859 C-86.47571569 23.26389996 -83.64679334 23.46947744 -80.8125 23.6875 C-79.85408203 23.74099609 -78.89566406 23.79449219 -77.90820312 23.84960938 C-69.80329087 24.49374546 -66.87737867 26.68206574 -61.55078125 32.82421875 C-60.81214844 33.76910156 -60.07351562 34.71398437 -59.3125 35.6875 C-56.93218572 38.72558679 -55.22251024 40.85165984 -52 43 C-51.35768433 42.26511353 -51.35768433 42.26511353 -50.70239258 41.51538086 C-48.75573004 39.30741075 -46.78478163 37.12260457 -44.8125 34.9375 C-43.80219727 33.78024414 -43.80219727 33.78024414 -42.77148438 32.59960938 C-41.78051758 31.51196289 -41.78051758 31.51196289 -40.76953125 30.40234375 C-40.16729736 29.72679443 -39.56506348 29.05124512 -38.94458008 28.35522461 C-37 27 -37 27 -34.45898438 27.13085938 C-30.82012371 28.41703332 -28.40116292 30.92137728 -25.6875 33.5625 C-25.13771484 34.08263672 -24.58792969 34.60277344 -24.02148438 35.13867188 C-22.67269654 36.41708817 -21.33519564 37.70739433 -20 39 C-9.65994519 30.7749564 -1.01575068 20.44405162 7 10 C6.38769531 9.70867187 5.77539062 9.41734375 5.14453125 9.1171875 C2.5117079 7.74562561 0.84685857 6.32567375 -1 4 C-0.75 1.75 -0.75 1.75 0 0 Z " fill="#435155" transform="translate(193,67)"/>
<path d="M0 0 C1.17175781 0.05414063 1.17175781 0.05414063 2.3671875 0.109375 C2.94726562 0.15578125 3.52734375 0.2021875 4.125 0.25 C4.125 0.58 4.125 0.91 4.125 1.25 C2.475 1.25 0.825 1.25 -0.875 1.25 C-0.875 2.24 -0.875 3.23 -0.875 4.25 C5.08295479 6.23598493 10.87392565 6.82045059 17.125 7.25 C13.33854693 11.15097717 9.38831917 14.7373116 5.1875 18.1875 C4.59259766 18.70634766 3.99769531 19.22519531 3.38476562 19.75976562 C1.6612527 21.16306304 0.14919512 22.32918294 -1.875 23.25 C-5.31640625 22.56640625 -5.31640625 22.56640625 -7.875 21.25 C-7.53272428 24.22065509 -7.53272428 24.22065509 -6.875 27.25 C-6.215 27.58 -5.555 27.91 -4.875 28.25 C-4.18896484 30.56665039 -4.18896484 30.56665039 -3.5859375 33.59765625 C-3.36679688 34.67724609 -3.14765625 35.75683594 -2.921875 36.86914062 C-2.70015625 38.00544922 -2.4784375 39.14175781 -2.25 40.3125 C-2.02054687 41.45267578 -1.79109375 42.59285156 -1.5546875 43.76757812 C-0.98711584 46.59361202 -0.42759939 49.42100691 0.125 52.25 C0.785 52.25 1.445 52.25 2.125 52.25 C2.455 51.92 2.785 51.59 3.125 51.25 C3.05945572 48.9142403 2.92108153 46.58040781 2.75 44.25 C2.61139333 42.28574548 2.47318065 40.32142809 2.34912109 38.35620117 C2.1667935 36.20637401 2.1667935 36.20637401 1.57666016 33.98168945 C1.051412 31.55222382 0.77618008 29.71637516 1.125 27.25 C3.37486648 24.32095748 6.18939549 22.46056949 9.25 20.4375 C10.0234375 19.89158203 10.796875 19.34566406 11.59375 18.78320312 C13.09142911 17.72639372 14.59932308 16.68387805 16.11816406 15.65771484 C18.32532684 14.16234742 18.32532684 14.16234742 20.9296875 11.80078125 C23.125 10.25 23.125 10.25 25.08203125 10.13671875 C28.24144031 11.85838525 30.44816645 14.41006223 32.8125 17.0625 C33.31072266 17.59681641 33.80894531 18.13113281 34.32226562 18.68164062 C39.04761421 23.89427075 39.04761421 23.89427075 39.125 27.25 C38.81433594 27.81203125 38.50367188 28.3740625 38.18359375 28.953125 C37.04651716 31.42028749 37.026264 32.625965 37.09765625 35.296875 C37.39682879 47.71583029 37.39682879 47.71583029 33.7578125 52.10546875 C30.95850547 54.08428924 28.17458516 55.6928568 25.125 57.25 C24.04412109 58.09691406 24.04412109 58.09691406 22.94140625 58.9609375 C21.125 60.25 21.125 60.25 18.375 59.9375 C17.6325 59.710625 16.89 59.48375 16.125 59.25 C15.795 61.23 15.465 63.21 15.125 65.25 C15.785 65.25 16.445 65.25 17.125 65.25 C17.4699145 66.58038449 17.80016582 67.91457061 18.125 69.25 C18.4034375 70.36375 18.4034375 70.36375 18.6875 71.5 C19.25096164 75.0417589 19.125 78.66370036 19.125 82.25 C7.905 82.25 -3.315 82.25 -14.875 82.25 C-12.64181614 72.20067265 -12.64181614 72.20067265 -10.75 68.375 C-9.38901738 65.60336386 -8.875 64.407639 -8.875 61.25 C-10.195 60.92 -11.515 60.59 -12.875 60.25 C-15.75409213 66.87304987 -18.38470345 73.4161864 -20.296875 80.38671875 C-20.875 82.25 -20.875 82.25 -21.875 83.25 C-24.97751201 83.33874135 -28.0576812 83.36518455 -31.16015625 83.34765625 C-32.09097519 83.3462413 -33.02179413 83.34482635 -33.9808197 83.34336853 C-36.96641191 83.33775172 -39.95193029 83.3251964 -42.9375 83.3125 C-44.95637913 83.30748716 -46.97525943 83.30292388 -48.99414062 83.29882812 C-53.95445572 83.28777683 -58.91471532 83.27050095 -63.875 83.25 C-63.88958252 82.57420898 -63.90416504 81.89841797 -63.91918945 81.20214844 C-63.99375411 78.13419478 -64.09038655 75.06731924 -64.1875 72 C-64.21005859 70.93652344 -64.23261719 69.87304688 -64.25585938 68.77734375 C-64.29130859 67.75253906 -64.32675781 66.72773438 -64.36328125 65.671875 C-64.38946533 64.72924805 -64.41564941 63.78662109 -64.44262695 62.81542969 C-64.93761894 59.8784586 -65.92345984 58.45826197 -67.875 56.25 C-65.45677124 54.06467442 -63.03511907 51.88357263 -60.60546875 49.7109375 C-58.94492133 48.21430678 -57.2977172 46.7024529 -55.67578125 45.1640625 C-51.11994574 40.92149663 -47.34406069 38.25 -40.875 38.25 C-40.875 37.26 -40.875 36.27 -40.875 35.25 C-39.885 35.25 -38.895 35.25 -37.875 35.25 C-37.875 35.91 -37.875 36.57 -37.875 37.25 C-35.47145407 37.44238129 -35.47145407 37.44238129 -32.875 36.25 C-31.1922829 33.50755951 -30.22507556 30.53473125 -29.1875 27.5 C-28.89294922 26.68789062 -28.59839844 25.87578125 -28.29492188 25.0390625 C-27.14277023 21.85964178 -26.00762985 18.70373368 -25.05859375 15.45703125 C-23.3279036 12.22983675 -20.63014508 10.61361648 -17.625 8.6875 C-17.06425781 8.31431641 -16.50351563 7.94113281 -15.92578125 7.55664062 C-14.80178002 6.81033496 -13.67235968 6.0721249 -12.53759766 5.34228516 C-10.91086878 4.2735649 -9.33320286 3.13132764 -7.7578125 1.98828125 C-4.77081906 0.18718087 -3.41376665 -0.20689495 0 0 Z " fill="#4B5759" transform="translate(96.875,89.75)"/>
<path d="M0 0 C1.8125 0.1875 1.8125 0.1875 4 1 C5.04965071 2.63585182 6.05470027 4.3017108 7 6 C5.6875 7.60416667 4.375 9.20833333 3.0625 10.8125 C1.84433594 12.30910156 1.84433594 12.30910156 0.6015625 13.8359375 C-1.10708067 15.92686214 -2.84131683 17.99142978 -4.6015625 20.0390625 C-5.41367188 20.99554688 -6.22578125 21.95203125 -7.0625 22.9375 C-7.81660156 23.81277344 -8.57070312 24.68804687 -9.34765625 25.58984375 C-11.37696695 28.06282608 -11.37696695 28.06282608 -11 32 C-6.32495201 29.97436945 -3.67824298 27.88830564 -0.5625 23.875 C0.5821875 22.4209375 0.5821875 22.4209375 1.75 20.9375 C2.86375 19.4834375 2.86375 19.4834375 4 18 C5.31158545 16.29096441 6.62399296 14.58255916 7.9375 12.875 C8.48277344 12.15054688 9.02804688 11.42609375 9.58984375 10.6796875 C11 9 11 9 13 8 C13.33 7.01 13.66 6.02 14 5 C17.4570323 6.59366737 20.46364568 8.60746489 23.5625 10.8125 C24.98755859 11.81216797 24.98755859 11.81216797 26.44140625 12.83203125 C31.10077267 16.78004402 32.58302309 21.22778145 34.25 27 C34.60578125 28.19625 34.9615625 29.3925 35.328125 30.625 C35.98430504 33.9211602 36.00265621 35.82880827 35 39 C33.31325725 40.68674275 31.22764062 40.1222216 28.97654623 40.12908131 C28.25185174 40.12616847 27.52715725 40.12325563 26.78050232 40.12025452 C26.0160236 40.12110894 25.25154489 40.12196337 24.46390015 40.12284368 C21.88272982 40.12450079 19.3016234 40.11897337 16.72045898 40.11352539 C14.87797039 40.11324354 13.03548169 40.11340121 11.19299316 40.1139679 C6.17460763 40.11425596 1.15624579 40.10835775 -3.86213422 40.10139394 C-9.10054738 40.09516193 -14.33896102 40.09455672 -19.57737732 40.09336853 C-29.50444491 40.09025476 -39.43150156 40.08204076 -49.35856432 40.07201904 C-60.65704095 40.06085931 -71.9555181 40.05534781 -83.25399888 40.05032361 C-106.502672 40.03985818 -129.75133539 40.02225787 -153 40 C-153 39.67 -153 39.34 -153 39 C-111.42 38.67 -69.84 38.34 -27 38 C-26.67 37.01 -26.34 36.02 -26 35 C-36.56 34.67 -47.12 34.34 -58 34 C-61 19 -61 19 -60 15 C-57.73854415 13.0913544 -55.55162633 11.41618654 -53.125 9.75 C-52.48691406 9.29109375 -51.84882813 8.8321875 -51.19140625 8.359375 C-46.40229725 5 -46.40229725 5 -43 5 C-43 5.66 -43 6.32 -43 7 C-42.46375 7.226875 -41.9275 7.45375 -41.375 7.6875 C-37.24750696 9.968483 -33.8333217 13.26357617 -30.3125 16.375 C-29.549375 16.91125 -28.78625 17.4475 -28 18 C-27.01 17.67 -26.02 17.34 -25 17 C-24.67 17.66 -24.34 18.32 -24 19 C-23.96003906 18.37609375 -23.92007813 17.7521875 -23.87890625 17.109375 C-23.44384766 16.06523437 -23.44384766 16.06523437 -23 15 C-20.33984375 14.015625 -20.33984375 14.015625 -16.9375 13.25 C-8.82402448 11.0121073 -4.58338369 6.87507553 0 0 Z " fill="#5A6465" transform="translate(181,139)"/>
<path d="M0 0 C2.03785772 2.04652946 3.78689283 3.9990916 5.5625 6.25 C6.03107422 6.82363281 6.49964844 7.39726562 6.98242188 7.98828125 C7.90323212 9.11901047 8.8144922 10.25759392 9.71533203 11.40429688 C10.88437236 12.85637737 12.13969462 14.2379122 13.40234375 15.609375 C15 18 15 18 14.90625 20.328125 C14.6071875 21.20984375 14.308125 22.0915625 14 23 C13.6184375 24.23234375 13.236875 25.4646875 12.84375 26.734375 C12.39897492 28.07396384 11.95099055 29.41249088 11.5 30.75 C11.16162109 31.77673828 11.16162109 31.77673828 10.81640625 32.82421875 C9.12672061 37.87327939 9.12672061 37.87327939 8 39 C4.89748799 39.08874135 1.8173188 39.11518455 -1.28515625 39.09765625 C-2.21597519 39.0962413 -3.14679413 39.09482635 -4.1058197 39.09336853 C-7.09141191 39.08775172 -10.07693029 39.0751964 -13.0625 39.0625 C-15.08137913 39.05748716 -17.10025943 39.05292388 -19.11914062 39.04882812 C-24.07945572 39.03777683 -29.03971532 39.02050095 -34 39 C-34.90607512 16.44434233 -34.90607512 16.44434233 -30.66015625 11.578125 C-27.87205308 9.40752119 -25.07179052 7.73312771 -22 6 C-21.18015625 5.13503906 -20.3603125 4.27007812 -19.515625 3.37890625 C-16.59274797 0.61488123 -14.93752589 0.15736957 -11 -0.375 C-9.989375 -0.52710938 -8.97875 -0.67921875 -7.9375 -0.8359375 C-4.85255775 -1.00823481 -2.89756875 -1.08944923 0 0 Z " fill="#F0A661" transform="translate(67,134)"/>
<path d="M0 0 C3.15940906 1.7216665 5.3661352 4.27334348 7.73046875 6.92578125 C8.47780273 7.72725586 8.47780273 7.72725586 9.24023438 8.54492188 C13.96558296 13.757552 13.96558296 13.757552 14.04296875 17.11328125 C13.73230469 17.6753125 13.42164063 18.23734375 13.1015625 18.81640625 C11.96448591 21.28356874 11.94423275 22.48924625 12.015625 25.16015625 C12.31479754 37.57911154 12.31479754 37.57911154 8.67578125 41.96875 C5.87647422 43.94757049 3.09255391 45.55613805 0.04296875 47.11328125 C-0.63121094 47.69207031 -1.30539063 48.27085937 -2 48.8671875 C-3.95703125 50.11328125 -3.95703125 50.11328125 -6.3828125 49.94921875 C-9.10478592 49.06530022 -11.5837742 48.01672274 -14.14453125 46.73828125 C-15.00433594 46.31804687 -15.86414063 45.8978125 -16.75 45.46484375 C-18.95703125 44.11328125 -18.95703125 44.11328125 -20.95703125 41.11328125 C-21.39031969 38.75143448 -21.73295757 36.37238162 -22.01953125 33.98828125 C-22.17550781 32.72757813 -22.33148438 31.466875 -22.4921875 30.16796875 C-22.55664062 29.5143335 -22.62109375 28.86069824 -22.6875 28.18725586 C-22.9223102 26.06638818 -22.9223102 26.06638818 -23.5234375 23.85375977 C-24.05182535 21.41590001 -24.31874916 19.58674812 -23.95703125 17.11328125 C-21.70622867 14.18474765 -18.89284526 12.32398922 -15.83203125 10.30078125 C-15.05859375 9.75486328 -14.28515625 9.20894531 -13.48828125 8.64648438 C-11.99060214 7.58967497 -10.48270817 6.5471593 -8.96386719 5.52099609 C-6.75670441 4.02562867 -6.75670441 4.02562867 -4.15234375 1.6640625 C-1.95703125 0.11328125 -1.95703125 0.11328125 0 0 Z " fill="#F0A660" transform="translate(121.95703125,99.88671875)"/>
<path d="M0 0 C3.45201639 1.47721422 5.64961936 3.43794001 8.25 6.125 C8.95640625 6.84945312 9.6628125 7.57390625 10.390625 8.3203125 C11.18726563 9.15175781 11.18726563 9.15175781 12 10 C10.1095153 14.36494112 7.03822725 17.29298252 3.77734375 20.68359375 C1.85090524 23.1943147 1.35651586 24.8900847 1 28 C7.55711999 26.21169455 12.28600822 20.46175262 16 15 C19.45201639 16.47721422 21.64961936 18.43794001 24.25 21.125 C24.95640625 21.84945312 25.6628125 22.57390625 26.390625 23.3203125 C26.92171875 23.87460938 27.4528125 24.42890625 28 25 C26.09105628 27.78160371 24.12064108 30.3792443 22 33 C21.57025879 33.54076172 21.14051758 34.08152344 20.69775391 34.63867188 C15.69583423 40.77436001 10.94611816 46.40541064 2.77954102 47.6105957 C-2.88569935 47.98810209 -7.32653049 47.57626811 -11.8125 43.75 C-12.91191503 42.53234125 -13.97811821 41.28341882 -15 40 C-15.81791016 39.37544922 -15.81791016 39.37544922 -16.65234375 38.73828125 C-19.78461464 34.69810575 -18.9699944 27.84131147 -18.43505859 22.94726562 C-17.25768535 17.67749625 -12.79316632 14.49130774 -9 11 C-7.24117212 9.00836679 -5.59956284 6.95125946 -3.9375 4.875 C-3.18339844 3.94429688 -2.42929688 3.01359375 -1.65234375 2.0546875 C-1.10707031 1.37664062 -0.56179687 0.69859375 0 0 Z " fill="#718D93" transform="translate(157,101)"/>
<path d="M0 0 C0 0.66 0 1.32 0 2 C0.53625 2.226875 1.0725 2.45375 1.625 2.6875 C4.75418889 4.4167886 7.33766336 6.64272277 10 9 C10.804375 9.680625 11.60875 10.36125 12.4375 11.0625 C16.08142764 15.23968534 22 22.24734515 22 28 C9.79 28 -2.42 28 -15 28 C-18 14 -18 14 -17 10 C-14.73854415 8.0913544 -12.55162633 6.41618654 -10.125 4.75 C-9.48691406 4.29109375 -8.84882813 3.8321875 -8.19140625 3.359375 C-3.40229725 0 -3.40229725 0 0 0 Z " fill="#F1A761" transform="translate(138,144)"/>
<path d="M0 0 C2.73991629 1.44271768 4.31555088 2.29504229 5.76953125 5.05078125 C6.97597932 10.07620163 6.6875 14.76703446 6.6875 20 C-4.5325 20 -15.7525 20 -27.3125 20 C-23.77746815 4.09235669 -23.77746815 4.09235669 -19.296875 0.2890625 C-12.25542006 -4.04598289 -7.43531039 -3.04655985 0 0 Z " fill="#F1A862" transform="translate(109.3125,152)"/>
<path d="M0 0 C1.3363018 0.32122639 2.6687529 0.65843002 4 1 C4.94875 1.22171875 5.8975 1.4434375 6.875 1.671875 C10.73527752 3.00367075 13.02561688 4.15439603 16 7 C19.3281383 14.97409533 20.1106166 24.42435283 20 33 C18.76115681 33.72767003 17.50831659 34.43154815 16.25 35.125 C15.20585938 35.71667969 15.20585938 35.71667969 14.140625 36.3203125 C12 37 12 37 10.06616211 36.2487793 C6.46767349 34.07386859 4.03321896 30.84811372 1.3125 27.6875 C0.42208008 26.69073242 0.42208008 26.69073242 -0.48632812 25.67382812 C-6.1298448 19.16801814 -6.1298448 19.16801814 -6 15 C-5.12244092 12.27702728 -4.20161495 9.79225956 -3.0625 7.1875 C-2.77181641 6.49462891 -2.48113281 5.80175781 -2.18164062 5.08789062 C-1.46608352 3.38697619 -0.73460121 1.69277669 0 0 Z " fill="#F0A863" transform="translate(76,111)"/>
<path d="M0 0 C5.77341184 2.708852 13.03290106 6.39034032 16.16015625 12.12890625 C17.09113141 15.76315742 17 19.25352798 17 23 C5.45 23 -6.1 23 -18 23 C-16.18602623 19.37205246 -14.38135241 16.8450029 -11.8125 13.75 C-10.61753906 12.30947266 -10.61753906 12.30947266 -9.3984375 10.83984375 C-6.31173039 7.18506188 -3.18262793 3.57150208 0 0 Z " fill="#F0A662" transform="translate(192,149)"/>
<path d="M0 0 C1.8125 0.1875 1.8125 0.1875 4 1 C5.04965071 2.63585182 6.05470027 4.3017108 7 6 C0.15487605 14.4699766 -6.88664461 22.75524798 -14 31 C-17.04775498 28.1997123 -18.95064938 25.59587937 -20.75 21.875 C-21.17796875 21.00617188 -21.6059375 20.13734375 -22.046875 19.2421875 C-23 17 -23 17 -23 15 C-22.154375 14.8040625 -21.30875 14.608125 -20.4375 14.40625 C-10.82823126 11.87289733 -5.48990057 8.23485086 0 0 Z " fill="#EDA25E" transform="translate(181,139)"/>
<path d="M0 0 C0.99515625 0.07992187 1.9903125 0.15984375 3.015625 0.2421875 C5.68066246 0.46769067 8.34004932 0.72157526 11 1 C7.21354693 4.90097717 3.26331917 8.4873116 -0.9375 11.9375 C-1.53240234 12.45634766 -2.12730469 12.97519531 -2.74023438 13.50976562 C-4.45740862 14.90790203 -5.99182194 16.06529691 -8 17 C-12.00033146 16.34396537 -15.01040837 14.57938762 -18.375 12.375 C-19.06335938 11.92898437 -19.75171875 11.48296875 -20.4609375 11.0234375 C-20.96882813 10.68570313 -21.47671875 10.34796875 -22 10 C-15.49115952 2.88095572 -9.82977627 -0.97045562 0 0 Z " fill="#EEA967" transform="translate(103,96)"/>
<path d="M0 0 C1.32 0 2.64 0 4 0 C4 7.59 4 15.18 4 23 C-5.765625 23.48828125 -5.765625 23.48828125 -9 23 C-11.99066822 20.11701541 -12.89946094 18.62557635 -13.5625 14.5 C-12.85024299 10.06817859 -11.58911308 8.63201626 -8 6 C-4.20519469 5.36753245 -3.27057143 5.81961905 0 8 C0 5.36 0 2.72 0 0 Z " fill="#475459" transform="translate(155,207)"/>
<path d="M0 0 C5.61 0 11.22 0 17 0 C17 1.32 17 2.64 17 4 C13.04 4 9.08 4 5 4 C5 5.65 5 7.3 5 9 C8.96 9 12.92 9 17 9 C17 10.65 17 12.3 17 14 C13.04 14 9.08 14 5 14 C5 16.97 5 19.94 5 23 C3.35 23 1.7 23 0 23 C0 15.41 0 7.82 0 0 Z " fill="#778083" transform="translate(84,207)"/>
<path d="M0 0 C2.9375 2.1875 2.9375 2.1875 5 5 C5 6.65 5 8.3 5 10 C1.04 10 -2.92 10 -7 10 C-6.01 11.485 -6.01 11.485 -5 13 C-3.02252878 13.36297936 -3.02252878 13.36297936 -0.875 13.1875 C0.40375 13.125625 1.6825 13.06375 3 13 C2.67 14.32 2.34 15.64 2 17 C-5.57264502 17.89089941 -5.57264502 17.89089941 -8.74609375 15.91015625 C-11.37558212 13.10189247 -11.99679927 11.18564262 -12.0625 7.375 C-9.97913557 0.75725416 -6.92052129 -1.09271389 0 0 Z " fill="#5A6264" transform="translate(115,213)"/>
<path d="M0 0 C3.76991795 0.70685962 5.40418092 1.74418215 8 4.5625 C8.33 6.5425 8.66 8.5225 9 10.5625 C4.71 10.5625 0.42 10.5625 -4 10.5625 C-3.01 12.0475 -3.01 12.0475 -2 13.5625 C-0.02252878 13.92547936 -0.02252878 13.92547936 2.125 13.75 C3.40375 13.688125 4.6825 13.62625 6 13.5625 C6.33 14.5525 6.66 15.5425 7 16.5625 C3.53469791 18.29515104 -0.21107035 18.0268626 -4 17.5625 C-6.5625 16.0625 -6.5625 16.0625 -8 13.5625 C-8.7152453 8.55578289 -8.81148802 6.70813015 -5.875 2.5625 C-3 0.5625 -3 0.5625 0 0 Z " fill="#4B5557" transform="translate(131,212.4375)"/>
<path d="M0 0 C1.32 0.33 2.64 0.66 4 1 C4 2.65 4 4.3 4 6 C0.04 6 -3.92 6 -8 6 C-7.01 7.485 -7.01 7.485 -6 9 C-4.02252878 9.36297936 -4.02252878 9.36297936 -1.875 9.1875 C-0.59625 9.125625 0.6825 9.06375 2 9 C1.67 10.32 1.34 11.64 1 13 C-0.43655854 13.08131463 -1.8744483 13.13933559 -3.3125 13.1875 C-4.51326172 13.23970703 -4.51326172 13.23970703 -5.73828125 13.29296875 C-8 13 -8 13 -9.78125 11.6875 C-11.59219053 9.18004388 -11.20005332 7.00079974 -11 4 C-7.37 4 -3.74 4 0 4 C0 2.68 0 1.36 0 0 Z " fill="#434F51" transform="translate(116,217)"/>
<path d="M0 0 C2.41696872 -0.05411124 4.83271787 -0.09372278 7.25 -0.125 C7.93191406 -0.14175781 8.61382812 -0.15851563 9.31640625 -0.17578125 C13.0608235 -0.21213482 15.82352727 -0.07944349 19 2 C18.01 3.485 18.01 3.485 17 5 C13.8828125 5.36328125 13.8828125 5.36328125 10.125 5.3125 C8.27261719 5.30669922 8.27261719 5.30669922 6.3828125 5.30078125 C3.29731179 5.02643534 1.57987573 4.62700706 -1 3 C-0.67 2.01 -0.34 1.02 0 0 Z " fill="#3E4B50" transform="translate(96,91)"/>
<path d="M0 0 C0.33 0.66 0.66 1.32 1 2 C2.98 1.34 4.96 0.68 7 0 C6.01 3.3 5.02 6.6 4 10 C15.22 10 26.44 10 38 10 C38 10.33 38 10.66 38 11 C26.45 11 14.9 11 3 11 C2 8 2 8 2 5 C1.34 5.66 0.68 6.32 0 7 C-0.93423645 3.98968256 -1.04449911 3.13349732 0 0 Z " fill="#6A6657" transform="translate(78,162)"/>
<path d="M0 0 C4.55555556 0.55555556 4.55555556 0.55555556 6 2 C6.1875 4.9375 6.1875 4.9375 6 8 C5.34 8.66 4.68 9.32 4 10 C-0.55555556 9.44444444 -0.55555556 9.44444444 -2 8 C-2.1875 5.0625 -2.1875 5.0625 -2 2 C-1.34 1.34 -0.68 0.68 0 0 Z " fill="#F6F6F6" transform="translate(149,217)"/>
<path d="M0 0 C2.375 0.4375 2.375 0.4375 5.375 2.4375 C5.045 3.4275 4.715 4.4175 4.375 5.4375 C2.725 5.4375 1.075 5.4375 -0.625 5.4375 C-1.285 7.4175 -1.945 9.3975 -2.625 11.4375 C-2.955 10.4475 -3.285 9.4575 -3.625 8.4375 C-4.615 8.4375 -5.605 8.4375 -6.625 8.4375 C-6.955 9.7575 -7.285 11.0775 -7.625 12.4375 C-8.05380585 8.06368037 -8.11034354 6.08924704 -5.4375 2.5 C-2.625 0.4375 -2.625 0.4375 0 0 Z " fill="#545D62" transform="translate(149.625,212.5625)"/>
<path d="M0 0 C5.28 0 10.56 0 16 0 C16 0.99 16 1.98 16 3 C12.04 3 8.08 3 4 3 C3.67 4.65 3.34 6.3 3 8 C2.01 8.33 1.02 8.66 0 9 C0 6.03 0 3.06 0 0 Z " fill="#3C484F" transform="translate(85,208)"/>
<path d="M0 0 C1.11375 0.1546875 1.11375 0.1546875 2.25 0.3125 C2.25 4.3125 2.25 4.3125 1.0625 6.5 C-1.14949096 8.71199096 -2.68795671 8.98146829 -5.75 9.3125 C-6.5 7.625 -6.5 7.625 -6.75 5.3125 C-3.87070875 0.43985327 -3.87070875 0.43985327 0 0 Z " fill="#3C4C4D" transform="translate(175.75,161.6875)"/>
<path d="M0 0 C3.3 0 6.6 0 10 0 C10.33 1.98 10.66 3.96 11 6 C10.34 6 9.68 6 9 6 C8.34 5.34 7.68 4.68 7 4 C4.78927023 3.75746187 4.78927023 3.75746187 2.375 3.875 C1.14910156 3.90207031 1.14910156 3.90207031 -0.1015625 3.9296875 C-1.04128906 3.96449219 -1.04128906 3.96449219 -2 4 C-1.34 2.68 -0.68 1.36 0 0 Z " fill="#6A7071" transform="translate(129,217)"/>
<path d="M0 0 C0.99 0 1.98 0 3 0 C4.0064275 1.66279327 5.00585407 3.32983484 6 5 C8.06700655 6.32793606 8.06700655 6.32793606 10 7 C9.67 7.66 9.34 8.32 9 9 C3.6 9.36 3.6 9.36 1.125 7.875 C-0.4682099 5.21965017 -0.20214032 3.03210482 0 0 Z " fill="#424E53" transform="translate(143,221)"/>
<path d="M0 0 C3.96 0 7.92 0 12 0 C11.67 1.98 11.34 3.96 11 6 C10.67 5.01 10.34 4.02 10 3 C7.36 3.33 4.72 3.66 2 4 C1.34 2.68 0.68 1.36 0 0 Z " fill="#DEE0DD" transform="translate(108,223)"/>
<path d="M0 0 C3.75068199 0.45008184 4.78988517 1.50101252 7.125 4.375 C5.69089632 4.62454005 4.25239928 4.84892642 2.8125 5.0625 C2.01199219 5.19011719 1.21148437 5.31773437 0.38671875 5.44921875 C-1.875 5.375 -1.875 5.375 -3.66796875 3.89453125 C-4.06628906 3.39308594 -4.46460937 2.89164063 -4.875 2.375 C-2.875 0.375 -2.875 0.375 0 0 Z " fill="#545C5F" transform="translate(130.875,212.625)"/>
<path d="M0 0 C2.29013653 3.4352048 2.17842973 4.985331 2 9 C0.35 9.33 -1.3 9.66 -3 10 C-3.36923077 3.47692308 -3.36923077 3.47692308 -1.5 1.0625 C-1.005 0.711875 -0.51 0.36125 0 0 Z " fill="#3D484C" transform="translate(97,120)"/>
<path d="M0 0 C0.66 0.33 1.32 0.66 2 1 C0.07063642 2.842617 -1.86755967 4.67395452 -3.8125 6.5 C-4.63331055 7.28697266 -4.63331055 7.28697266 -5.47070312 8.08984375 C-9.66015625 12 -9.66015625 12 -13 12 C-13 13.65 -13 15.3 -13 17 C-13.33 17 -13.66 17 -14 17 C-14.4375 14.3671875 -14.4375 14.3671875 -14 11 C-11.96792756 8.63680861 -9.53162174 6.92352664 -7 5.125 C-6.33226563 4.62742187 -5.66453125 4.12984375 -4.9765625 3.6171875 C-3.33033469 2.39427541 -1.66675137 1.19478861 0 0 Z " fill="#DA9A60" transform="translate(112,106)"/>
<path d="M0 0 C3.5875213 1.33250791 6.8364623 2.830717 10 5 C10 5.66 10 6.32 10 7 C7.8125 7.8125 7.8125 7.8125 5 8 C2.1875 5.75 2.1875 5.75 0 3 C0 2.01 0 1.02 0 0 Z " fill="#424F54" transform="translate(74,141)"/>
<path d="M0 0 C0.66 0.33 1.32 0.66 2 1 C0.35 2.98 -1.3 4.96 -3 7 C-1.35 6.34 0.3 5.68 2 5 C2 5.66 2 6.32 2 7 C-0.31 8.32 -2.62 9.64 -5 11 C-5.875 8.3125 -5.875 8.3125 -6 5 C-4.20703368 2.86499088 -2.32163572 1.61093091 0 0 Z " fill="#3E4D4F" transform="translate(112,99)"/>
<path d="M0 0 C0 3.77995004 -1.07938127 4.68246364 -3.4375 7.5625 C-5.96989607 10.61950238 -5.96989607 10.61950238 -8 14 C-9.65 14 -11.3 14 -13 14 C-11.73817089 11.47634177 -9.85872205 10.2542389 -7.69921875 8.5078125 C-4.8181819 5.95130624 -2.42453822 2.98338568 0 0 Z " fill="#576867" transform="translate(152,98)"/>
<path d="M0 0 C3.96 0 7.92 0 12 0 C8 4 8 4 4.75 4.25 C3.8425 4.1675 2.935 4.085 2 4 C1.34 2.68 0.68 1.36 0 0 Z " fill="#DCDDDC" transform="translate(127,223)"/>
<path d="M0 0 C3 3 3 3 3.29296875 5.04296875 C3.1953125 7.02864583 3.09765625 9.01432292 3 11 C2.01 11 1.02 11 0 11 C0 7.37 0 3.74 0 0 Z " fill="#3F5153" transform="translate(85,219)"/>
<path d="M0 0 C3.63 0 7.26 0 11 0 C11 0.99 11 1.98 11 3 C9.54257537 3.08096803 8.08387193 3.13917774 6.625 3.1875 C5.81289062 3.22230469 5.00078125 3.25710937 4.1640625 3.29296875 C3.44992188 3.19628906 2.73578125 3.09960938 2 3 C1.34 2.01 0.68 1.02 0 0 Z " fill="#3A4549" transform="translate(89,217)"/>
<path d="M0 0 C0.598125 0.185625 1.19625 0.37125 1.8125 0.5625 C4.16408762 1.22093687 4.16408762 1.22093687 7 0 C6.34 1.32 5.68 2.64 5 4 C3.8553125 3.938125 3.8553125 3.938125 2.6875 3.875 C-0.22718416 3.77919176 -0.22718416 3.77919176 -3 6 C-3.66 5.01 -4.32 4.02 -5 3 C-3.35 2.67 -1.7 2.34 0 2 C0 1.34 0 0.68 0 0 Z " fill="#535A59" transform="translate(84,146)"/>
<path d="M0 0 C1.65 0.33 3.3 0.66 5 1 C5.33 1.99 5.66 2.98 6 4 C3.36 4 0.72 4 -2 4 C-1.34 2.68 -0.68 1.36 0 0 Z " fill="#EBEAE9" transform="translate(110,216)"/>
<path d="M0 0 C0 0.66 0 1.32 0 2 C-3.96 2 -7.92 2 -12 2 C-11.67 1.34 -11.34 0.68 -11 0 C-9.00390625 -0.44921875 -9.00390625 -0.44921875 -6.5625 -0.6875 C-5.75941406 -0.77386719 -4.95632812 -0.86023438 -4.12890625 -0.94921875 C-2 -1 -2 -1 0 0 Z " fill="#464E51" transform="translate(138,221)"/>
<path d="M0 0 C0.33 0.99 0.66 1.98 1 3 C0.38125 3.5775 -0.2375 4.155 -0.875 4.75 C-2.81347053 6.80249821 -3.90014249 8.43366582 -5 11 C-5.99 10.67 -6.98 10.34 -8 10 C-5.36 6.7 -2.72 3.4 0 0 Z " fill="#465B4E" transform="translate(182,151)"/>
<path d="M0 0 C1.98 0 3.96 0 6 0 C3.42215154 2.64752004 1.08351902 4.94432065 -2 7 C-1.42415568 4.61435923 -0.77772405 2.33317216 0 0 Z " fill="#D6995F" transform="translate(108,97)"/>
<path d="M0 0 C0.66 0.33 1.32 0.66 2 1 C2 2.98 2 4.96 2 7 C1.67 6.01 1.34 5.02 1 4 C0.01 4 -0.98 4 -2 4 C-2.33 5.32 -2.66 6.64 -3 8 C-3 5.69 -3 3.38 -3 1 C-2.01 0.67 -1.02 0.34 0 0 Z " fill="#6D7375" transform="translate(145,217)"/>
<path d="M0 0 C0.99 0.33 1.98 0.66 3 1 C2.34 3.64 1.68 6.28 1 9 C0.01 8.67 -0.98 8.34 -2 8 C-2.20086443 4.28400809 -2.1519437 3.22791555 0 0 Z " fill="#E1DFDE" transform="translate(122,215)"/>
<path d="M0 0 C0.66 0.33 1.32 0.66 2 1 C-0.31 3.97 -2.62 6.94 -5 10 C-5.99 9.67 -6.98 9.34 -8 9 C-5.36 6.03 -2.72 3.06 0 0 Z " fill="#E49E60" transform="translate(192,149)"/>
<path d="M0 0 C1.5 1.375 1.5 1.375 3 3 C3 3.66 3 4.32 3 5 C3.66 5 4.32 5 5 5 C4.67 6.32 4.34 7.64 4 9 C0.06153846 5.67692308 0.06153846 5.67692308 -0.25 2.25 C-0.1675 1.5075 -0.085 0.765 0 0 Z " fill="#EEA76A" transform="translate(163,161)"/>
<path d="M0 0 C0.33 0 0.66 0 1 0 C1.33 3.3 1.66 6.6 2 10 C-0.5 8.75 -0.5 8.75 -3 7 C-3 5.68 -3 4.36 -3 3 C-2.34 3 -1.68 3 -1 3 C-0.67 2.01 -0.34 1.02 0 0 Z " fill="#64635C" transform="translate(121,162)"/>
<path d="M0 0 C6.4 -0.49230769 6.4 -0.49230769 9.4375 2 C10.2109375 2.99 10.2109375 2.99 11 4 C9.68 4.33 8.36 4.66 7 5 C6.34 4.01 5.68 3.02 5 2 C2.43717258 1.27034634 2.43717258 1.27034634 0 1 C0 0.67 0 0.34 0 0 Z " fill="#60696B" transform="translate(108,213)"/>
<path d="M0 0 C2.625 -0.1875 2.625 -0.1875 5 0 C5.33 0.99 5.66 1.98 6 3 C3.36 3 0.72 3 -2 3 C-1.34 2.01 -0.68 1.02 0 0 Z " fill="#F6F5F5" transform="translate(129,217)"/>
<path d="M0 0 C2.31 0.66 4.62 1.32 7 2 C5.3125 3.5625 5.3125 3.5625 3 5 C0.25 4.6875 0.25 4.6875 -2 4 C-1.34 2.68 -0.68 1.36 0 0 Z " fill="#5E6668" transform="translate(145,214)"/>
<path d="M0 0 C4.455 1.98 4.455 1.98 9 4 C8.67 4.66 8.34 5.32 8 6 C7.01 6 6.02 6 5 6 C5 5.34 5 4.68 5 4 C4.360625 3.896875 3.72125 3.79375 3.0625 3.6875 C2.381875 3.460625 1.70125 3.23375 1 3 C0.67 2.01 0.34 1.02 0 0 Z " fill="#E5A365" transform="translate(83,114)"/>
<path d="M0 0 C-0.33 1.32 -0.66 2.64 -1 4 C-3.4375 3.625 -3.4375 3.625 -6 3 C-6.33 2.34 -6.66 1.68 -7 1 C-4.57333205 -0.21333397 -2.66500278 0 0 0 Z " fill="#556266" transform="translate(217,86)"/>
<path d="M0 0 C0.99 0 1.98 0 3 0 C3.33 1.32 3.66 2.64 4 4 C3.01 4.33 2.02 4.66 1 5 C0.34 4.67 -0.32 4.34 -1 4 C-1.33 4.66 -1.66 5.32 -2 6 C-1.49396008 3.83125748 -1.00016187 2.00032373 0 0 Z " fill="#4E5958" transform="translate(117,158)"/>
<path d="M0 0 C0.33 0.66 0.66 1.32 1 2 C-0.32 2 -1.64 2 -3 2 C-2.67 3.98 -2.34 5.96 -2 8 C-3.5625 6.75 -3.5625 6.75 -5 5 C-4.6875 2.8125 -4.6875 2.8125 -4 1 C-2.68 0.67 -1.36 0.34 0 0 Z " fill="#3C4B50" transform="translate(160,151)"/>
</svg>
